<svg xmlns="http://www.w3.org/2000/svg" width="26.709" height="30" viewBox="0 0 26.709 30"><defs><style>.a{fill:#0e4c8d;}</style></defs><g transform="translate(-72.748 -102.932)"><path class="a" d="M98.281,112.19l-4.825-4.26-5.013-4.186a3.469,3.469,0,0,0-4.387-.059l-5.245,4.146c-.059.045-.109.089-.165.135l-4.734,4.242a3.485,3.485,0,0,0-1.162,2.593V129.45a3.483,3.483,0,0,0,3.481,3.481H95.975a3.483,3.483,0,0,0,3.481-3.481V114.8A3.492,3.492,0,0,0,98.281,112.19ZM84.19,130.74v-7.693a.083.083,0,0,1,.081-.081h3.561a.082.082,0,0,1,.081.081v7.693Zm13.075-1.29a1.293,1.293,0,0,1-1.29,1.29H90.1v-7.693a2.27,2.27,0,0,0-2.272-2.272H84.271A2.27,2.27,0,0,0,82,123.047v7.693H76.229a1.292,1.292,0,0,1-1.288-1.29V114.8a1.288,1.288,0,0,1,.431-.96l4.734-4.242c.022-.015.04-.033.063-.051l5.245-4.146a1.263,1.263,0,0,1,.8-.278,1.3,1.3,0,0,1,.829.3l4.986,4.168,4.8,4.242a1.285,1.285,0,0,1,.439.967Z"/></g></svg>