<svg xmlns="http://www.w3.org/2000/svg" width="27" height="25.788" viewBox="0 0 27 25.788"><defs><style>.a{fill:#0e4c8d;}</style></defs><g transform="translate(-71.834 -27.356)"><g transform="translate(71.834 27.356)"><path class="a" d="M92.591,39.252V36.638a.764.764,0,0,0-.011-.137.122.122,0,0,0-.006-.028c-.007-.029-.012-.054-.021-.082s-.017-.051-.025-.078a.833.833,0,0,0-.057-.111l-.026-.042a.735.735,0,0,0-.071-.089c-.008-.011-.017-.022-.028-.035l-8.284-8.371c-.021-.021-.037-.04-.057-.06a.707.707,0,0,0-.126-.105.537.537,0,0,0-.073-.043,1.034,1.034,0,0,0-.151-.065c-.033-.008-.068-.017-.1-.022a.586.586,0,0,0-.148-.015H75.068a3.251,3.251,0,0,0-3.234,3.261V49.883a3.251,3.251,0,0,0,3.234,3.261h14.29a3.25,3.25,0,0,0,3.234-3.261V47.564l-1.7,1.574v.744a1.544,1.544,0,0,1-1.529,1.556H75.068a1.544,1.544,0,0,1-1.529-1.556V30.617a1.544,1.544,0,0,1,1.529-1.556h7.483v7.577a.854.854,0,0,0,.852.852h7.483l-.01,3.491Zm-8.335-3.466v-5.5l5.443,5.5Z" transform="translate(-71.834 -27.356)"/></g><g transform="translate(86.465 37.508)"><rect class="a" width="7.926" height="3.409" transform="translate(2.191 7.736) rotate(-45)"/><path class="a" d="M83.022,44.61,85.21,44.1a.577.577,0,0,0,.255-.141l.625-.625-2.414-2.414-.625.625a.553.553,0,0,0-.143.255L82.4,43.985A.535.535,0,0,0,83.022,44.61Z" transform="translate(-82.39 -32.274)"/><path class="a" d="M92.19,36.535l-1.7-1.7a.529.529,0,0,0-.737,0l-1.08,1.08,2.414,2.414,1.08-1.08A.474.474,0,0,0,92.19,36.535Z" transform="translate(-79.967 -34.681)"/></g><rect class="a" width="7.926" height="1.695" rx="0.612" transform="translate(79.966 38.349)"/><rect class="a" width="3.145" height="1.695" rx="0.612" transform="translate(75.246 38.349)"/><rect class="a" width="3.145" height="1.695" rx="0.612" transform="translate(75.246 42.691)"/><rect class="a" width="3.145" height="1.695" rx="0.612" transform="translate(75.246 47.045)"/><rect class="a" width="7.926" height="1.695" rx="0.612" transform="translate(79.966 42.691)"/><path class="a" d="M83.235,41.561l-.43,1.7H78.551a.849.849,0,0,1-.85-.847.852.852,0,0,1,.85-.85Z" transform="translate(2.265 5.483)"/></g></svg>