<svg xmlns="http://www.w3.org/2000/svg" width="27" height="31.011" viewBox="0 0 27 31.011"><defs><style>.a{fill:#0e4c8d;}</style></defs><g transform="translate(-74.894 -106.666)"><path class="a" d="M100.8,127.182a1.092,1.092,0,0,1-1.093-1.091v-3.1a5.116,5.116,0,0,0-5.111-5.111H82.191a5.116,5.116,0,0,0-5.111,5.111v3.1a1.093,1.093,0,0,1-2.186,0v-3.1a7.306,7.306,0,0,1,7.3-7.3H94.6a7.306,7.306,0,0,1,7.3,7.3v3.1A1.092,1.092,0,0,1,100.8,127.182Z" transform="translate(0 10.495)"/><path class="a" d="M85.22,120.26a7.3,7.3,0,1,1,7.3-7.3A7.3,7.3,0,0,1,85.22,120.26Zm0-12.408a5.111,5.111,0,1,0,5.111,5.111A5.116,5.116,0,0,0,85.22,107.852Z" transform="translate(3.173 1)"/></g></svg>