<svg xmlns="http://www.w3.org/2000/svg" width="26.571" height="33.37" viewBox="0 0 26.571 33.37"><defs><style>.a{fill:#0e4c8d;}</style></defs><g transform="translate(-73.632 -62.916)"><path class="a" d="M100.2,78.383a.511.511,0,0,0-.015-.1.268.268,0,0,0-.02-.071.79.79,0,0,0-.036-.116.829.829,0,0,0-.079-.168.928.928,0,0,0-.059-.089.863.863,0,0,0-.112-.132L91,68.735l-.008,0c-.038-.036-.074-.071-.116-.1s-.112-.074-.175-.109a1.433,1.433,0,0,0-.139-.056.784.784,0,0,0-.168-.04.26.26,0,0,0-.078-.012c-.038,0-.079-.008-.117-.008h-2.24A7.278,7.278,0,1,0,77.67,76.709v15.9a3.674,3.674,0,0,0,3.66,3.681H96.544a3.674,3.674,0,0,0,3.66-3.681V78.5C100.2,78.461,100.2,78.419,100.2,78.383Zm-8.872-6.136,5.079,5.13H91.324Zm-15.45-2.053A5.038,5.038,0,0,1,85.619,68.4a4.94,4.94,0,0,1,.332,1.793c0,.15-.008.3-.023.449a5.039,5.039,0,0,1-5.018,4.592,5.127,5.127,0,0,1-1-.1,5.062,5.062,0,0,1-4.036-4.944Zm22.09,22.411a1.429,1.429,0,0,1-1.42,1.441H81.329a1.433,1.433,0,0,1-1.42-1.441V77.4a6.655,6.655,0,0,0,1,.071,7.287,7.287,0,0,0,7.266-6.832h.908V78.5A1.124,1.124,0,0,0,90.2,79.619h7.76Z"/><path class="a" d="M78.617,70.84h0a.753.753,0,0,1-.53-.224l-1.951-2A.746.746,0,0,1,77.2,67.577l1.425,1.456,3.032-3.016a.746.746,0,1,1,1.053,1.058l-3.565,3.547A.745.745,0,0,1,78.617,70.84Z" transform="translate(1.488 1.876)"/><rect class="a" width="9.287" height="1.865" rx="0.565" transform="translate(86.432 80.841)"/><rect class="a" width="2.739" height="1.865" rx="0.565" transform="translate(82.206 80.841)"/><rect class="a" width="2.739" height="1.865" rx="0.565" transform="translate(82.206 85.557)"/><rect class="a" width="2.739" height="1.865" rx="0.565" transform="translate(82.206 90.277)"/><rect class="a" width="9.287" height="1.865" rx="0.565" transform="translate(86.432 85.557)"/><rect class="a" width="9.287" height="1.865" rx="0.565" transform="translate(86.432 90.261)"/></g></svg>