<svg xmlns="http://www.w3.org/2000/svg" width="27" height="29.299" viewBox="0 0 27 29.299"><defs><style>.a{fill:#0e4c8d;}</style></defs><path class="a" d="M26.482,18.816a.964.964,0,0,1-.685-.28L23.2,15.923H14.911A2.42,2.42,0,0,1,12.5,13.512V6.27a2.42,2.42,0,0,1,2.411-2.42H25.055a2.42,2.42,0,0,1,2.391,2.42V17.842a.964.964,0,0,1-.6.887.81.81,0,0,1-.366.087ZM14.911,5.779a.492.492,0,0,0-.482.492v7.242a.492.492,0,0,0,.482.482h8.679a.964.964,0,0,1,.675.28l1.254,1.292V6.27a.492.492,0,0,0-.482-.492Z" transform="translate(-0.446 -0.138)"/><circle class="a" cx="0.791" cy="0.791" r="0.791" transform="translate(15.699 8.987)"/><circle class="a" cx="0.791" cy="0.791" r="0.791" transform="translate(18.765 8.987)"/><circle class="a" cx="0.791" cy="0.791" r="0.791" transform="translate(21.822 8.987)"/><g transform="translate(0 2)"><path class="a" d="M4.82,22.41a2.43,2.43,0,1,1,2.42-2.42A2.43,2.43,0,0,1,4.82,22.41Zm0-3.857a.609.609,0,1,0,0-.029Z" transform="translate(-0.085 -0.627)"/><path class="a" d="M8.987,28.139H.482A.482.482,0,0,1,0,27.657V26.085A2.555,2.555,0,0,1,2.555,23.53H6.914a2.555,2.555,0,0,1,2.555,2.555v1.572A.482.482,0,0,1,8.987,28.139ZM.964,27.175H8.505v-1.09a1.591,1.591,0,0,0-1.591-1.591H2.555A1.591,1.591,0,0,0,.964,26.085Z" transform="translate(0 -0.84)"/></g><g transform="translate(0 2)"><path class="a" d="M20.82,22.41a2.43,2.43,0,1,1,2.42-2.42A2.43,2.43,0,0,1,20.82,22.41Zm0-3.857a.609.609,0,1,0,0-.029Z" transform="translate(-0.656 -0.627)"/><path class="a" d="M24.987,28.139h-8.5A.482.482,0,0,1,16,27.657V26.085a2.555,2.555,0,0,1,2.555-2.555h4.359a2.555,2.555,0,0,1,2.555,2.555v1.572A.482.482,0,0,1,24.987,28.139Zm-8.023-.964H24.5v-1.09a1.591,1.591,0,0,0-1.591-1.591H18.555a1.591,1.591,0,0,0-1.591,1.591Z" transform="translate(-0.572 -0.84)"/></g><path class="a" d="M12.615,0H2.481A2.411,2.411,0,0,0,.07,2.411V13.982a.964.964,0,0,0,.588.887,1.051,1.051,0,0,0,.376.077.964.964,0,0,0,.675-.28l2.613-2.613h7.3V10.125H3.908a.964.964,0,0,0-.685.28L2,11.668V2.411a.482.482,0,0,1,.482-.482H12.615a.482.482,0,0,1,.482.482v.868h1.929V2.411A2.411,2.411,0,0,0,12.615,0Z" transform="translate(-0.002)"/></svg>